<?xml version="1.0" encoding="UTF-8" standalone="no"?>
<!DOCTYPE svg PUBLIC "-//W3C//DTD SVG 1.1//EN" "http://www.w3.org/Graphics/SVG/1.1/DTD/svg11.dtd">
<svg version="1.1" xmlns="http://www.w3.org/2000/svg" xmlns:xlink="http://www.w3.org/1999/xlink" preserveAspectRatio="xMidYMid meet" viewBox="66.744736842105 75.39097744360907 523.2755639097744 474.99999999999994" width="475" height="431.18"><defs><path d="M68.32 75.39L590.02 75.39L590.02 550.39L68.32 550.39L68.32 75.39Z" id="c1R1ARKpoF"></path><path d="M543.86 199.83C543.86 243.19 507.98 278.4 463.79 278.4C419.59 278.4 383.71 243.19 383.71 199.83C383.71 156.46 419.59 121.26 463.79 121.26C507.98 121.26 543.86 156.46 543.86 199.83Z" id="a5jc1Y6hm"></path><path d="M539.58 199.83C539.58 218.92 523.74 234.41 504.24 234.41C484.74 234.41 468.9 218.92 468.9 199.83C468.9 180.74 484.74 165.24 504.24 165.24C523.74 165.24 539.58 180.74 539.58 199.83Z" id="amxZgZEI3"></path><path d="M587.37 473.14L67.82 473.14L67.82 396.44L587.37 396.44L587.37 473.14Z" id="b1FfmWfLPX"></path><path d="M534.04 177.53C534.04 184.32 528.42 189.83 521.51 189.83C514.59 189.83 508.98 184.32 508.98 177.53C508.98 170.75 514.59 165.24 521.51 165.24C528.42 165.24 534.04 170.75 534.04 177.53Z" id="bfBBNSAug"></path><path d="M584.47 434.79L66.74 437.05" id="b46kosQHv"></path><path d="M104.77 473.14L104.77 396.44" id="abY7Jmah"></path><path d="M150.11 474.26L150.11 397.57" id="e6s4iqunqX"></path><path d="M202.96 471.48L202.96 394.79" id="b1AxpAF1bC"></path><path d="M263.34 471.48L263.34 422.01L263.34 394.79" id="j4sKoJ2dyC"></path><path d="M326.52 473.14L326.52 396.44" id="c4t4TQfKnw"></path><path d="M392.16 471.48L392.16 394.79" id="m2Ld83ZtJn"></path><path d="M463.79 471.48L463.79 394.79" id="b5bUFNTNrq"></path><path d="M534.04 471.48L534.04 394.79" id="a26SHS7NpE"></path><path d="M292.51 165.24C298.03 165.24 302.51 169.72 302.51 175.24C302.51 210.91 302.51 307.92 302.51 343.59C302.51 349.11 298.03 353.59 292.51 353.59C261.43 353.59 178.18 353.59 147.1 353.59C141.57 353.59 137.1 349.11 137.1 343.59C137.1 307.92 137.1 210.91 137.1 175.24C137.1 169.72 141.57 165.24 147.1 165.24C178.18 165.24 261.43 165.24 292.51 165.24Z" id="a8jUfzBsyE"></path><path d="" id="b2vD6kRJDr"></path><path d="M162.66 185.54C162.66 186.99 161.31 188.17 159.65 188.17C157.99 188.17 156.65 186.99 156.65 185.54C156.65 184.09 157.99 182.91 159.65 182.91C161.31 182.91 162.66 184.09 162.66 185.54Z" id="aqWa33rwR"></path><path d="M287.41 185.54C287.41 186.99 286.06 188.17 284.4 188.17C282.74 188.17 281.4 186.99 281.4 185.54C281.4 184.09 282.74 182.91 284.4 182.91C286.06 182.91 287.41 184.09 287.41 185.54Z" id="b7gpvx8vC0"></path><path d="M287.41 334.79C287.41 336.24 286.06 337.42 284.4 337.42C282.74 337.42 281.4 336.24 281.4 334.79C281.4 333.34 282.74 332.16 284.4 332.16C286.06 332.16 287.41 333.34 287.41 334.79Z" id="c64OhePVE"></path><path d="M162.66 337.42C162.66 338.88 161.31 340.05 159.65 340.05C157.99 340.05 156.65 338.88 156.65 337.42C156.65 335.97 157.99 334.79 159.65 334.79C161.31 334.79 162.66 335.97 162.66 337.42Z" id="c7HBdg4AG2"></path></defs><g><g><g><use xlink:href="#c1R1ARKpoF" opacity="1" fill="#cbcbcb" fill-opacity="1"></use><g><use xlink:href="#c1R1ARKpoF" opacity="1" fill-opacity="0" stroke="#999999" stroke-width="2" stroke-opacity="1"></use></g></g><g><use xlink:href="#a5jc1Y6hm" opacity="1" fill="#ffffff" fill-opacity="1"></use></g><g><use xlink:href="#amxZgZEI3" opacity="1" fill="#030303" fill-opacity="1"></use></g><g><use xlink:href="#b1FfmWfLPX" opacity="1" fill="#f8f8f8" fill-opacity="1"></use><g><use xlink:href="#b1FfmWfLPX" opacity="1" fill-opacity="0" stroke="#909090" stroke-width="2" stroke-opacity="1"></use></g></g><g><use xlink:href="#bfBBNSAug" opacity="1" fill="#fef9f9" fill-opacity="1"></use></g><g><g><use xlink:href="#b46kosQHv" opacity="1" fill-opacity="0" stroke="#838383" stroke-width="2" stroke-opacity="1"></use></g></g><g><g><use xlink:href="#abY7Jmah" opacity="1" fill-opacity="0" stroke="#6b6b6b" stroke-width="2" stroke-opacity="1"></use></g></g><g><g><use xlink:href="#e6s4iqunqX" opacity="1" fill-opacity="0" stroke="#777777" stroke-width="2" stroke-opacity="1"></use></g></g><g><g><use xlink:href="#b1AxpAF1bC" opacity="1" fill-opacity="0" stroke="#777777" stroke-width="2" stroke-opacity="1"></use></g></g><g><g><use xlink:href="#j4sKoJ2dyC" opacity="1" fill-opacity="0" stroke="#777777" stroke-width="2" stroke-opacity="1"></use></g></g><g><g><use xlink:href="#c4t4TQfKnw" opacity="1" fill-opacity="0" stroke="#777777" stroke-width="2" stroke-opacity="1"></use></g></g><g><g><use xlink:href="#m2Ld83ZtJn" opacity="1" fill-opacity="0" stroke="#777777" stroke-width="2" stroke-opacity="1"></use></g></g><g><g><use xlink:href="#b5bUFNTNrq" opacity="1" fill-opacity="0" stroke="#777777" stroke-width="2" stroke-opacity="1"></use></g></g><g><g><use xlink:href="#a26SHS7NpE" opacity="1" fill-opacity="0" stroke="#777777" stroke-width="2" stroke-opacity="1"></use></g></g><g><g><use xlink:href="#a8jUfzBsyE" opacity="1" fill-opacity="0" stroke="#b9b9b9" stroke-width="1" stroke-opacity="1"></use></g></g><g><g><use xlink:href="#b2vD6kRJDr" opacity="1" fill-opacity="0" stroke="#0f0f0f" stroke-width="2" stroke-opacity="1"></use></g></g><g><use xlink:href="#aqWa33rwR" opacity="1" fill="#b0afaf" fill-opacity="1"></use></g><g><use xlink:href="#b7gpvx8vC0" opacity="1" fill="#b0afaf" fill-opacity="1"></use></g><g><use xlink:href="#c64OhePVE" opacity="1" fill="#b0afaf" fill-opacity="1"></use></g><g><use xlink:href="#c7HBdg4AG2" opacity="1" fill="#b0afaf" fill-opacity="1"></use></g></g></g></svg>