<?xml version="1.0" encoding="UTF-8" standalone="no"?>
<!DOCTYPE svg PUBLIC "-//W3C//DTD SVG 1.1//EN" "http://www.w3.org/Graphics/SVG/1.1/DTD/svg11.dtd">
<svg version="1.1" xmlns="http://www.w3.org/2000/svg" xmlns:xlink="http://www.w3.org/1999/xlink" preserveAspectRatio="xMidYMid meet" viewBox="77.92242034414615 158.9529560832347 474.99996087672463 150.13999516871985" width="475" height="150.14"><defs><path d="M250.36 236.49C250.36 269.84 223.77 296.92 191.02 296.92C158.26 296.92 131.67 269.84 131.67 236.49C131.67 203.15 158.26 176.07 191.02 176.07C223.77 176.07 250.36 203.15 250.36 236.49Z" id="dF3Lvlm97"></path><path d="M242.82 235.99C242.82 264.34 219.38 287.35 190.51 287.35C161.64 287.35 138.21 264.34 138.21 235.99C138.21 207.65 161.64 184.63 190.51 184.63C219.38 184.63 242.82 207.65 242.82 235.99Z" id="c3bxC8Csir"></path><path d="M369.06 236.49C369.06 269.84 342.46 296.92 309.71 296.92C276.96 296.92 250.36 269.84 250.36 236.49C250.36 203.15 276.96 176.07 309.71 176.07C342.46 176.07 369.06 203.15 369.06 236.49Z" id="e1izeqhFrR"></path><path d="M361.51 235.99C361.51 264.34 338.08 287.35 309.21 287.35C280.34 287.35 256.9 264.34 256.9 235.99C256.9 207.65 280.34 184.63 309.21 184.63C338.08 184.63 361.51 207.65 361.51 235.99Z" id="a1nri96Hqc"></path><path d="M487.75 236.49C487.75 269.84 461.16 296.92 428.4 296.92C395.65 296.92 369.06 269.84 369.06 236.49C369.06 203.15 395.65 176.07 428.4 176.07C461.16 176.07 487.75 203.15 487.75 236.49Z" id="a1zuKJNzqy"></path><path d="M480.21 235.99C480.21 264.34 456.77 287.35 427.9 287.35C399.03 287.35 375.59 264.34 375.59 235.99C375.59 207.65 399.03 184.63 427.9 184.63C456.77 184.63 480.21 207.65 480.21 235.99Z" id="dHsUavwiM"></path><path d="M188.96 294.9C204.74 291.96 214.6 290.12 218.55 289.38C238.22 285.71 258.4 285.71 278.07 289.38C282.02 290.12 291.88 291.96 307.66 294.9C322.81 292.07 332.28 290.31 336.07 289.6C356.4 285.8 377.34 286.9 397.16 292.8C398.58 293.22 391.13 291.01 397.17 292.8C401.83 294.19 406.71 294.75 411.57 294.44C427.76 293.43 468.22 290.9 532.97 286.85C518.08 246.85 508.77 221.85 505.04 211.85C495.23 185.5 470.06 168.02 441.94 168.02C382.09 168.02 244.91 168.02 183.96 168.02C159.05 168.02 136.65 183.21 127.44 206.36C123.17 217.09 112.49 243.92 95.42 286.85L188.96 294.9Z" id="aU8VKzkfN"></path><path d="M204.09 158.95C208.81 158.95 212.64 162.78 212.64 167.5C212.64 169.22 212.64 165.81 212.64 167.52C212.64 172.24 208.81 176.07 204.09 176.07C197.15 176.07 184.88 176.07 177.94 176.07C173.22 176.07 169.39 172.24 169.39 167.52C169.39 165.81 169.39 169.22 169.39 167.5C169.39 162.78 173.22 158.95 177.94 158.95C184.88 158.95 197.15 158.95 204.09 158.95Z" id="e2AFBrKaNL"></path><path d="M247.35 158.95C252.07 158.95 255.9 162.78 255.9 167.5C255.9 169.22 255.9 165.81 255.9 167.52C255.9 172.24 252.07 176.07 247.35 176.07C240.4 176.07 228.13 176.07 221.19 176.07C216.47 176.07 212.64 172.24 212.64 167.52C212.64 165.81 212.64 169.22 212.64 167.5C212.64 162.78 216.47 158.95 221.19 158.95C228.13 158.95 240.4 158.95 247.35 158.95Z" id="a1KQhuFKbf"></path><path d="M290.6 158.95C295.32 158.95 299.15 162.78 299.15 167.5C299.15 169.22 299.15 165.81 299.15 167.52C299.15 172.24 295.32 176.07 290.6 176.07C283.66 176.07 271.39 176.07 264.45 176.07C259.72 176.07 255.9 172.24 255.9 167.52C255.9 165.81 255.9 169.22 255.9 167.5C255.9 162.78 259.72 158.95 264.45 158.95C271.39 158.95 283.66 158.95 290.6 158.95Z" id="baYIqYWM0"></path><path d="M333.85 158.95C338.57 158.95 342.4 162.78 342.4 167.5C342.4 169.22 342.4 165.81 342.4 167.52C342.4 172.24 338.57 176.07 333.85 176.07C326.91 176.07 314.64 176.07 307.7 176.07C302.98 176.07 299.15 172.24 299.15 167.52C299.15 165.81 299.15 169.22 299.15 167.5C299.15 162.78 302.98 158.95 307.7 158.95C314.64 158.95 326.91 158.95 333.85 158.95Z" id="d3SsxHw5n0"></path><path d="M377.1 158.95C381.83 158.95 385.65 162.78 385.65 167.5C385.65 169.22 385.65 165.81 385.65 167.52C385.65 172.24 381.83 176.07 377.1 176.07C370.16 176.07 357.89 176.07 350.95 176.07C346.23 176.07 342.4 172.24 342.4 167.52C342.4 165.81 342.4 169.22 342.4 167.5C342.4 162.78 346.23 158.95 350.95 158.95C357.89 158.95 370.16 158.95 377.1 158.95Z" id="c1GlgN68b"></path><path d="M419.85 158.95C424.58 158.95 428.4 162.78 428.4 167.5C428.4 169.22 428.4 165.81 428.4 167.52C428.4 172.24 424.58 176.07 419.85 176.07C412.91 176.07 400.64 176.07 393.7 176.07C388.98 176.07 385.15 172.24 385.15 167.52C385.15 165.81 385.15 169.22 385.15 167.5C385.15 162.78 388.98 158.95 393.7 158.95C400.64 158.95 412.91 158.95 419.85 158.95Z" id="a2dTua5nFY"></path><path d="M463.11 158.95C467.83 158.95 471.66 162.78 471.66 167.5C471.66 169.22 471.66 165.81 471.66 167.52C471.66 172.24 467.83 176.07 463.11 176.07C456.17 176.07 443.89 176.07 436.95 176.07C432.23 176.07 428.4 172.24 428.4 167.52C428.4 165.81 428.4 169.22 428.4 167.5C428.4 162.78 432.23 158.95 436.95 158.95C443.89 158.95 456.17 158.95 463.11 158.95Z" id="a23KB3X5Ni"></path><path d="M507.13 181.75C511.22 184.12 512.62 189.35 510.26 193.44C509.41 194.92 511.11 191.97 510.26 193.45C507.9 197.54 502.67 198.94 498.58 196.58C492.57 193.1 481.94 186.96 475.93 183.49C471.84 181.12 470.44 175.89 472.8 171.8C473.66 170.31 471.95 173.27 472.81 171.79C475.16 167.7 480.39 166.3 484.48 168.66C490.49 172.14 501.12 178.28 507.13 181.75Z" id="b1DPDWtbyR"></path><path d="M529.65 224.69C531.44 229.06 529.35 234.06 524.98 235.85C523.4 236.5 526.56 235.2 524.98 235.85C520.61 237.64 515.62 235.55 513.83 231.18C511.2 224.75 506.54 213.37 503.91 206.94C502.12 202.57 504.21 197.58 508.58 195.78C510.16 195.14 507 196.43 508.58 195.78C512.95 193.99 517.94 196.08 519.73 200.45C522.36 206.88 527.02 218.26 529.65 224.69Z" id="aa3cAGcNJ"></path><path d="M545.85 263.02C547.64 267.39 545.55 272.39 541.18 274.18C539.59 274.83 542.76 273.53 541.18 274.18C536.81 275.97 531.81 273.88 530.02 269.51C527.39 263.08 522.73 251.71 520.1 245.27C518.31 240.9 520.4 235.91 524.77 234.11C526.36 233.47 523.19 234.76 524.77 234.11C529.14 232.32 534.14 234.41 535.92 238.78C538.56 245.21 543.21 256.59 545.85 263.02Z" id="c40u8Ot7y8"></path><path d="M552.61 284.87C553.48 287 552.46 289.44 550.33 290.31C547.94 291.29 544.62 292.66 542.23 293.64C540.1 294.51 537.66 293.49 536.79 291.36C535.5 288.23 533.24 282.69 531.95 279.55C531.08 277.42 532.1 274.98 534.23 274.11C536.63 273.13 539.94 271.76 542.34 270.78C544.47 269.91 546.9 270.93 547.78 273.06C549.06 276.19 551.33 281.73 552.61 284.87Z" id="d12MCvRxNx"></path><path d="M144.75 288.36C149.47 288.36 153.3 292.18 153.3 296.91C153.3 298.62 153.3 295.21 153.3 296.93C153.3 301.65 149.47 305.48 144.75 305.48C137.8 305.48 125.53 305.48 118.59 305.48C113.87 305.48 110.04 301.65 110.04 296.93C110.04 295.21 110.04 298.62 110.04 296.91C110.04 292.18 113.87 288.36 118.59 288.36C125.53 288.36 137.8 288.36 144.75 288.36Z" id="bZb86T5So"></path><path d="M274.72 288.36C279.44 288.36 283.27 292.18 283.27 296.91C283.27 298.62 283.27 295.21 283.27 296.93C283.27 301.65 279.44 305.48 274.72 305.48C267.78 305.48 255.51 305.48 248.56 305.48C243.84 305.48 240.01 301.65 240.01 296.93C240.01 295.21 240.01 298.62 240.01 296.91C240.01 292.18 243.84 288.36 248.56 288.36C255.51 288.36 267.78 288.36 274.72 288.36Z" id="a5LvwAZTw"></path><path d="M317.97 288.36C322.69 288.36 326.52 292.18 326.52 296.91C326.52 298.62 326.52 295.21 326.52 296.93C326.52 301.65 322.69 305.48 317.97 305.48C311.03 305.48 298.76 305.48 291.82 305.48C287.1 305.48 283.27 301.65 283.27 296.93C283.27 295.21 283.27 298.62 283.27 296.91C283.27 292.18 287.1 288.36 291.82 288.36C298.76 288.36 311.03 288.36 317.97 288.36Z" id="a17yx0oplC"></path><path d="M361.22 288.36C365.95 288.36 369.77 292.18 369.77 296.91C369.77 298.62 369.77 295.21 369.77 296.93C369.77 301.65 365.95 305.48 361.22 305.48C354.28 305.48 342.01 305.48 335.07 305.48C330.35 305.48 326.52 301.65 326.52 296.93C326.52 295.21 326.52 298.62 326.52 296.91C326.52 292.18 330.35 288.36 335.07 288.36C342.01 288.36 354.28 288.36 361.22 288.36Z" id="i5oEWPNKz"></path><path d="M404.48 288.36C409.2 288.36 413.03 292.18 413.03 296.91C413.03 298.62 413.03 295.21 413.03 296.93C413.03 301.65 409.2 305.48 404.48 305.48C397.54 305.48 385.26 305.48 378.32 305.48C373.6 305.48 369.77 301.65 369.77 296.93C369.77 295.21 369.77 298.62 369.77 296.91C369.77 292.18 373.6 288.36 378.32 288.36C385.26 288.36 397.54 288.36 404.48 288.36Z" id="aaT1E8ZGbH"></path><path d="M447.73 288.36C452.45 288.36 456.28 292.18 456.28 296.91C456.28 298.62 456.28 295.21 456.28 296.93C456.28 301.65 452.45 305.48 447.73 305.48C440.79 305.48 428.52 305.48 421.58 305.48C416.85 305.48 413.03 301.65 413.03 296.93C413.03 295.21 413.03 298.62 413.03 296.91C413.03 292.18 416.85 288.36 421.58 288.36C428.52 288.36 440.79 288.36 447.73 288.36Z" id="moHFyS9Y"></path><path d="M490.48 288.36C495.2 288.36 499.03 292.18 499.03 296.91C499.03 298.62 499.03 295.21 499.03 296.93C499.03 301.65 495.2 305.48 490.48 305.48C483.54 305.48 471.27 305.48 464.33 305.48C459.6 305.48 455.78 301.65 455.78 296.93C455.78 295.21 455.78 298.62 455.78 296.91C455.78 292.18 459.6 288.36 464.33 288.36C471.27 288.36 483.54 288.36 490.48 288.36Z" id="b5loYxI9nm"></path><path d="M533.73 288.36C538.45 288.36 542.28 292.18 542.28 296.91C542.28 298.62 542.28 295.21 542.28 296.93C542.28 301.65 538.45 305.48 533.73 305.48C526.79 305.48 514.52 305.48 507.58 305.48C502.86 305.48 499.03 301.65 499.03 296.93C499.03 295.21 499.03 298.62 499.03 296.91C499.03 292.18 502.86 288.36 507.58 288.36C514.52 288.36 526.79 288.36 533.73 288.36Z" id="b1Bds2kBsj"></path><path d="M156.74 160C160.89 157.74 166.08 159.26 168.34 163.41C169.16 164.91 167.53 161.92 168.35 163.42C170.61 167.57 169.08 172.76 164.93 175.03C158.84 178.36 148.07 184.24 141.97 187.57C137.83 189.83 132.63 188.3 130.37 184.16C129.56 182.65 131.19 185.65 130.37 184.15C128.11 180 129.64 174.8 133.78 172.54C139.88 169.21 150.65 163.33 156.74 160Z" id="g5MxckouP"></path><path d="M120.82 187.27C122.97 183.07 128.12 181.41 132.32 183.56C133.84 184.34 130.8 182.78 132.32 183.56C136.53 185.72 138.19 190.87 136.04 195.08C132.87 201.26 127.27 212.21 124.1 218.39C121.95 222.59 116.8 224.26 112.6 222.1C111.07 221.32 114.12 222.88 112.6 222.1C108.39 219.94 106.73 214.79 108.88 210.58C112.05 204.4 117.65 193.46 120.82 187.27Z" id="b4gagfReX"></path><path d="M103.77 224.18C105.64 219.84 110.67 217.85 115 219.72C116.57 220.4 113.43 219.04 115 219.72C119.34 221.59 121.34 226.63 119.46 230.96C116.71 237.35 111.84 248.63 109.09 255.01C107.22 259.35 102.19 261.35 97.85 259.47C96.28 258.79 99.42 260.15 97.85 259.47C93.52 257.6 91.52 252.57 93.39 248.23C96.14 241.85 101.01 230.56 103.77 224.18Z" id="b6kxOQzKf"></path><path d="M145 288.36C149.72 288.36 153.55 292.18 153.55 296.91C153.55 298.62 153.55 295.21 153.55 296.93C153.55 301.65 149.72 305.48 145 305.48C138.06 305.48 125.78 305.48 118.84 305.48C114.12 305.48 110.29 301.65 110.29 296.93C110.29 295.21 110.29 298.62 110.29 296.91C110.29 292.18 114.12 288.36 118.84 288.36C125.78 288.36 138.06 288.36 145 288.36Z" id="b1g09S3mEH"></path><path d="M188.25 288.36C192.97 288.36 196.8 292.18 196.8 296.91C196.8 298.62 196.8 295.21 196.8 296.93C196.8 301.65 192.97 305.48 188.25 305.48C181.31 305.48 169.04 305.48 162.1 305.48C157.37 305.48 153.55 301.65 153.55 296.93C153.55 295.21 153.55 298.62 153.55 296.91C153.55 292.18 157.37 288.36 162.1 288.36C169.04 288.36 181.31 288.36 188.25 288.36Z" id="eoOjl5vk"></path><path d="M231 288.36C235.72 288.36 239.55 292.18 239.55 296.91C239.55 298.62 239.55 295.21 239.55 296.93C239.55 301.65 235.72 305.48 231 305.48C224.06 305.48 211.79 305.48 204.85 305.48C200.12 305.48 196.3 301.65 196.3 296.93C196.3 295.21 196.3 298.62 196.3 296.91C196.3 292.18 200.12 288.36 204.85 288.36C211.79 288.36 224.06 288.36 231 288.36Z" id="aZlESXsTT"></path><path d="M274.25 288.36C278.97 288.36 282.8 292.18 282.8 296.91C282.8 298.62 282.8 295.21 282.8 296.93C282.8 301.65 278.97 305.48 274.25 305.48C267.31 305.48 255.04 305.48 248.1 305.48C243.38 305.48 239.55 301.65 239.55 296.93C239.55 295.21 239.55 298.62 239.55 296.91C239.55 292.18 243.38 288.36 248.1 288.36C255.04 288.36 267.31 288.36 274.25 288.36Z" id="b1jNGcxCx2"></path><path d="M89.02 259.4C90.53 255.9 94.58 254.29 98.08 255.8C99.95 256.61 99.25 256.31 101.12 257.12C104.62 258.63 106.23 262.68 104.72 266.18C102.5 271.32 98.58 280.41 96.37 285.55C94.86 289.04 90.8 290.65 87.31 289.14C85.43 288.33 86.14 288.64 84.26 287.83C80.77 286.32 79.16 282.26 80.67 278.76C82.88 273.62 86.8 264.53 89.02 259.4Z" id="b5dO0wLIy"></path><path d="M113.97 292.3C118.51 293.61 121.14 298.35 119.83 302.89C119.36 304.53 120.3 301.26 119.83 302.9C118.52 307.44 113.79 310.06 109.25 308.76C102.58 306.84 90.79 303.45 84.12 301.53C79.58 300.22 76.95 295.48 78.26 290.94C78.73 289.3 77.79 292.58 78.26 290.93C79.56 286.39 84.3 283.77 88.84 285.07C95.51 286.99 107.3 290.39 113.97 292.3Z" id="c856k5t7b"></path><path d="M222.84 235.68C222.84 252.03 208.58 265.32 191.02 265.32C173.45 265.32 159.19 252.03 159.19 235.68C159.19 219.32 173.45 206.04 191.02 206.04C208.58 206.04 222.84 219.32 222.84 235.68Z" id="dH4YyqXy7"></path><path d="M196.8 265.21C196.8 267.99 194.55 270.25 191.77 270.25C188.99 270.25 186.74 267.99 186.74 265.21C186.74 262.43 188.99 260.18 191.77 260.18C194.55 260.18 196.8 262.43 196.8 265.21Z" id="f20EawA0dm"></path><path d="M165.48 235.68C165.48 238.45 163.22 240.71 160.45 240.71C157.67 240.71 155.42 238.45 155.42 235.68C155.42 232.9 157.67 230.64 160.45 230.64C163.22 230.64 165.48 232.9 165.48 235.68Z" id="bbw8pNuWo"></path><path d="M227.98 236.49C227.98 239.27 225.73 241.53 222.95 241.53C220.18 241.53 217.92 239.27 217.92 236.49C217.92 233.72 220.18 231.46 222.95 231.46C225.73 231.46 227.98 233.72 227.98 236.49Z" id="f2Y6004oSn"></path><path d="M196.8 207.87C196.8 210.65 194.55 212.9 191.77 212.9C188.99 212.9 186.74 210.65 186.74 207.87C186.74 205.09 188.99 202.83 191.77 202.83C194.55 202.83 196.8 205.09 196.8 207.87Z" id="aFIuHtewG"></path><path d="M339.08 236.49C339.08 252.85 324.82 266.13 307.25 266.13C289.68 266.13 275.42 252.85 275.42 236.49C275.42 220.14 289.68 206.85 307.25 206.85C324.82 206.85 339.08 220.14 339.08 236.49Z" id="a4vA0U5w8S"></path><path d="M460.23 237.51C460.23 253.86 445.97 267.15 428.4 267.15C410.84 267.15 396.58 253.86 396.58 237.51C396.58 221.15 410.84 207.87 428.4 207.87C445.97 207.87 460.23 221.15 460.23 237.51Z" id="a2qsiAKDi"></path><path d="M314.2 206.85C314.2 209.63 311.94 211.89 309.17 211.89C306.39 211.89 304.14 209.63 304.14 206.85C304.14 204.08 306.39 201.82 309.17 201.82C311.94 201.82 314.2 204.08 314.2 206.85Z" id="a5UO22OoKN"></path><path d="M437.12 207.87C437.12 210.65 434.87 212.9 432.09 212.9C429.32 212.9 427.07 210.65 427.07 207.87C427.07 205.09 429.32 202.83 432.09 202.83C434.87 202.83 437.12 205.09 437.12 207.87Z" id="a1hqWmVrLn"></path><path d="M282.8 236.49C282.8 239.27 280.55 241.53 277.77 241.53C275 241.53 272.74 239.27 272.74 236.49C272.74 233.72 275 231.46 277.77 231.46C280.55 231.46 282.8 233.72 282.8 236.49Z" id="g19suGfPmv"></path><path d="M344.11 237.51C344.11 240.28 341.85 242.54 339.08 242.54C336.3 242.54 334.05 240.28 334.05 237.51C334.05 234.73 336.3 232.47 339.08 232.47C341.85 232.47 344.11 234.73 344.11 237.51Z" id="a5xaJk9ojB"></path><path d="M314.2 265.21C314.2 267.99 311.94 270.25 309.17 270.25C306.39 270.25 304.14 267.99 304.14 265.21C304.14 262.43 306.39 260.18 309.17 260.18C311.94 260.18 314.2 262.43 314.2 265.21Z" id="aN58LKWuK"></path><path d="M401.61 237.51C401.61 240.28 399.35 242.54 396.58 242.54C393.8 242.54 391.55 240.28 391.55 237.51C391.55 234.73 393.8 232.47 396.58 232.47C399.35 232.47 401.61 234.73 401.61 237.51Z" id="bH3mCucVZ"></path><path d="M435.3 266.13C435.3 268.91 433.04 271.17 430.27 271.17C427.49 271.17 425.24 268.91 425.24 266.13C425.24 263.35 427.49 261.1 430.27 261.1C433.04 261.1 435.3 263.35 435.3 266.13Z" id="a3k0hjVMtw"></path><path d="M465.26 239.6C465.26 242.38 463.01 244.63 460.23 244.63C457.45 244.63 455.2 242.38 455.2 239.6C455.2 236.82 457.45 234.56 460.23 234.56C463.01 234.56 465.26 236.82 465.26 239.6Z" id="c2oeYPUFxe"></path></defs><g><g><g><g><use xlink:href="#dF3Lvlm97" opacity="1" fill="#544f4f" fill-opacity="1"></use></g><g><use xlink:href="#c3bxC8Csir" opacity="1" fill="#bdbbbb" fill-opacity="1"></use></g></g><g><g><use xlink:href="#e1izeqhFrR" opacity="1" fill="#544f4f" fill-opacity="1"></use></g><g><use xlink:href="#a1nri96Hqc" opacity="1" fill="#bdbbbb" fill-opacity="1"></use></g></g><g><g><use xlink:href="#a1zuKJNzqy" opacity="1" fill="#544f4f" fill-opacity="1"></use></g><g><use xlink:href="#dHsUavwiM" opacity="1" fill="#bdbbbb" fill-opacity="1"></use></g></g><g><g><use xlink:href="#aU8VKzkfN" opacity="1" fill-opacity="0" stroke="#464646" stroke-width="5" stroke-opacity="1"></use></g></g><g><g><use xlink:href="#e2AFBrKaNL" opacity="1" fill="#585353" fill-opacity="1"></use></g><g><use xlink:href="#a1KQhuFKbf" opacity="1" fill="#585353" fill-opacity="1"></use></g><g><use xlink:href="#baYIqYWM0" opacity="1" fill="#585353" fill-opacity="1"></use></g><g><use xlink:href="#d3SsxHw5n0" opacity="1" fill="#585353" fill-opacity="1"></use></g><g><use xlink:href="#c1GlgN68b" opacity="1" fill="#585353" fill-opacity="1"></use></g><g><use xlink:href="#a2dTua5nFY" opacity="1" fill="#585353" fill-opacity="1"></use></g><g><use xlink:href="#a23KB3X5Ni" opacity="1" fill="#585353" fill-opacity="1"></use></g></g><g><use xlink:href="#b1DPDWtbyR" opacity="1" fill="#585353" fill-opacity="1"></use></g><g><use xlink:href="#aa3cAGcNJ" opacity="1" fill="#585353" fill-opacity="1"></use></g><g><use xlink:href="#c40u8Ot7y8" opacity="1" fill="#585353" fill-opacity="1"></use></g><g><use xlink:href="#d12MCvRxNx" opacity="1" fill="#585353" fill-opacity="1"></use></g><g><use xlink:href="#bZb86T5So" opacity="1" fill="#585353" fill-opacity="1"></use></g><g><g><use xlink:href="#a5LvwAZTw" opacity="1" fill="#585353" fill-opacity="1"></use></g><g><use xlink:href="#a17yx0oplC" opacity="1" fill="#585353" fill-opacity="1"></use></g><g><use xlink:href="#i5oEWPNKz" opacity="1" fill="#585353" fill-opacity="1"></use></g><g><use xlink:href="#aaT1E8ZGbH" opacity="1" fill="#585353" fill-opacity="1"></use></g><g><use xlink:href="#moHFyS9Y" opacity="1" fill="#585353" fill-opacity="1"></use></g><g><use xlink:href="#b5loYxI9nm" opacity="1" fill="#585353" fill-opacity="1"></use></g><g><use xlink:href="#b1Bds2kBsj" opacity="1" fill="#585353" fill-opacity="1"></use></g></g><g><use xlink:href="#g5MxckouP" opacity="1" fill="#585353" fill-opacity="1"></use></g><g><use xlink:href="#b4gagfReX" opacity="1" fill="#585353" fill-opacity="1"></use></g><g><use xlink:href="#b6kxOQzKf" opacity="1" fill="#585353" fill-opacity="1"></use></g><g><use xlink:href="#b1g09S3mEH" opacity="1" fill="#585353" fill-opacity="1"></use></g><g><use xlink:href="#eoOjl5vk" opacity="1" fill="#585353" fill-opacity="1"></use></g><g><use xlink:href="#aZlESXsTT" opacity="1" fill="#585353" fill-opacity="1"></use></g><g><use xlink:href="#b1jNGcxCx2" opacity="1" fill="#585353" fill-opacity="1"></use></g><g><use xlink:href="#b5dO0wLIy" opacity="1" fill="#585353" fill-opacity="1"></use></g><g><use xlink:href="#c856k5t7b" opacity="1" fill="#585353" fill-opacity="1"></use></g><g><g><use xlink:href="#dH4YyqXy7" opacity="1" fill-opacity="0" stroke="#9f9f9f" stroke-width="1" stroke-opacity="1"></use></g></g><g><use xlink:href="#f20EawA0dm" opacity="1" fill="#585353" fill-opacity="1"></use></g><g><use xlink:href="#bbw8pNuWo" opacity="1" fill="#585353" fill-opacity="1"></use></g><g><use xlink:href="#f2Y6004oSn" opacity="1" fill="#585353" fill-opacity="1"></use></g><g><use xlink:href="#aFIuHtewG" opacity="1" fill="#585353" fill-opacity="1"></use></g><g><g><use xlink:href="#a4vA0U5w8S" opacity="1" fill-opacity="0" stroke="#9f9f9f" stroke-width="1" stroke-opacity="1"></use></g></g><g><g><use xlink:href="#a2qsiAKDi" opacity="1" fill-opacity="0" stroke="#9f9f9f" stroke-width="1" stroke-opacity="1"></use></g></g><g><use xlink:href="#a5UO22OoKN" opacity="1" fill="#585353" fill-opacity="1"></use></g><g><use xlink:href="#a1hqWmVrLn" opacity="1" fill="#585353" fill-opacity="1"></use></g><g><use xlink:href="#g19suGfPmv" opacity="1" fill="#585353" fill-opacity="1"></use></g><g><use xlink:href="#a5xaJk9ojB" opacity="1" fill="#585353" fill-opacity="1"></use></g><g><use xlink:href="#aN58LKWuK" opacity="1" fill="#585353" fill-opacity="1"></use></g><g><use xlink:href="#bH3mCucVZ" opacity="1" fill="#585353" fill-opacity="1"></use></g><g><use xlink:href="#a3k0hjVMtw" opacity="1" fill="#585353" fill-opacity="1"></use></g><g><use xlink:href="#c2oeYPUFxe" opacity="1" fill="#585353" fill-opacity="1"></use></g></g></g></svg>