<?xml version="1.0" encoding="UTF-8" standalone="no"?>
<!DOCTYPE svg PUBLIC "-//W3C//DTD SVG 1.1//EN" "http://www.w3.org/Graphics/SVG/1.1/DTD/svg11.dtd">
<svg version="1.1" xmlns="http://www.w3.org/2000/svg" xmlns:xlink="http://www.w3.org/1999/xlink" preserveAspectRatio="xMidYMid meet" viewBox="65.45339789272322 63.34969008264457 475.00000000000006 302.49" width="475" height="302.49"><defs><path d="M540.45 201.21L143.54 310.96L143.54 63.35L540.45 201.21Z" id="bZwzvOSV8"></path><path d="M205.35 305.61L192.34 63.35" id="e4BHTY6aHP"></path><path d="M249.43 298.92L236.42 75.4" id="j2XA9cOfnJ"></path><path d="M308.16 285.53L295.15 88.78" id="a1p8yxF3JZ"></path><path d="M375.02 270.81L362 116.89" id="eVuQ32I6L"></path><path d="M436.99 253.41L428.86 142.32" id="b424sI6RBB"></path><path d="M151.74 147.67C160.69 147.67 167.94 154.92 167.94 163.87C167.94 204.26 167.94 309.25 167.94 349.64C167.94 358.59 160.69 365.84 151.74 365.84C145.55 365.84 143.15 365.84 136.96 365.84C128.01 365.84 120.76 358.59 120.76 349.64C120.76 309.25 120.76 204.26 120.76 163.87C120.76 154.92 128.01 147.67 136.96 147.67C143.15 147.67 145.55 147.67 151.74 147.67Z" id="er9vvZsE2"></path><path d="M524.26 331.04C533.2 331.04 540.45 338.29 540.45 347.24C540.45 350.96 540.45 345.92 540.45 349.64C540.45 358.59 533.2 365.84 524.26 365.84C432.5 365.84 173.41 365.84 81.65 365.84C72.7 365.84 65.45 358.59 65.45 349.64C65.45 345.92 65.45 350.96 65.45 347.24C65.45 338.29 72.7 331.04 81.65 331.04C173.41 331.04 432.5 331.04 524.26 331.04Z" id="b24JeJT9Pb"></path><path d="M153.3 174.11C153.3 179.83 148.92 184.48 143.54 184.48C138.15 184.48 133.78 179.83 133.78 174.11C133.78 168.38 138.15 163.73 143.54 163.73C148.92 163.73 153.3 168.38 153.3 174.11Z" id="bAtmvhq7v"></path><path d="M153.3 344.22C153.3 349.95 148.92 354.6 143.54 354.6C138.15 354.6 133.78 349.95 133.78 344.22C133.78 338.5 138.15 333.85 143.54 333.85C148.92 333.85 153.3 338.5 153.3 344.22Z" id="dRRdfcNj"></path></defs><g><g><g><use xlink:href="#bZwzvOSV8" opacity="1" fill="#817d7e" fill-opacity="1"></use><g><use xlink:href="#bZwzvOSV8" opacity="1" fill-opacity="0" stroke="#000000" stroke-width="1" stroke-opacity="1"></use></g></g><g><g><use xlink:href="#e4BHTY6aHP" opacity="1" fill-opacity="0" stroke="#b1b1b1" stroke-width="5" stroke-opacity="1"></use></g></g><g><g><use xlink:href="#j2XA9cOfnJ" opacity="1" fill-opacity="0" stroke="#b1b1b1" stroke-width="5" stroke-opacity="1"></use></g></g><g><g><use xlink:href="#a1p8yxF3JZ" opacity="1" fill-opacity="0" stroke="#b1b1b1" stroke-width="5" stroke-opacity="1"></use></g></g><g><g><use xlink:href="#eVuQ32I6L" opacity="1" fill-opacity="0" stroke="#b1b1b1" stroke-width="5" stroke-opacity="1"></use></g></g><g><g><use xlink:href="#b424sI6RBB" opacity="1" fill-opacity="0" stroke="#b1b1b1" stroke-width="5" stroke-opacity="1"></use></g></g><g><use xlink:href="#er9vvZsE2" opacity="1" fill="#4f4a4c" fill-opacity="1"></use></g><g><use xlink:href="#b24JeJT9Pb" opacity="1" fill="#4f4a4c" fill-opacity="1"></use></g><g><use xlink:href="#bAtmvhq7v" opacity="1" fill="#c4b5bb" fill-opacity="1"></use></g><g><use xlink:href="#dRRdfcNj" opacity="1" fill="#c4b5bb" fill-opacity="1"></use></g></g></g></svg>