<?xml version="1.0" encoding="UTF-8" standalone="no"?>
<!DOCTYPE svg PUBLIC "-//W3C//DTD SVG 1.1//EN" "http://www.w3.org/Graphics/SVG/1.1/DTD/svg11.dtd">
<svg version="1.1" xmlns="http://www.w3.org/2000/svg" xmlns:xlink="http://www.w3.org/1999/xlink" preserveAspectRatio="xMidYMid meet" viewBox="211.97131124275688 252.23977388853947 283.9979302582466 73.83264744871181" width="280" height="69.83"><defs><path d="M354.43 278L354.43 323.07L348.46 323.07L348.46 278L354.43 278Z" id="a5DjrMKuH"></path><path d="M354.17 272.22C277.7 273.99 215.74 278.01 215.88 281.2C216.03 284.38 278.22 285.54 354.69 283.77C431.15 282.01 493.11 277.99 492.97 274.8C492.83 271.61 430.63 270.46 354.17 272.22Z" id="anuDQW8Mf"></path><path d="M350.17 269.33C275.4 257.75 213.93 250.87 212.98 253.99C212.04 257.11 271.98 269.04 346.75 280.62C421.52 292.2 482.99 299.07 483.94 295.96C484.88 292.84 424.94 280.91 350.17 269.33Z" id="a4x3JtfLp"></path></defs><g><g><use xlink:href="#a5DjrMKuH" opacity="1" fill="#000000" fill-opacity="1"></use><g><use xlink:href="#a5DjrMKuH" opacity="1" fill-opacity="0" stroke="#000000" stroke-width="1" stroke-opacity="1"></use></g></g><g><use xlink:href="#anuDQW8Mf" opacity="1" fill="#08110a" fill-opacity="1"></use></g><g><use xlink:href="#a4x3JtfLp" opacity="1" fill="#08110a" fill-opacity="1"></use></g></g></svg>