<?xml version="1.0" encoding="UTF-8" standalone="no"?>
<!DOCTYPE svg PUBLIC "-//W3C//DTD SVG 1.1//EN" "http://www.w3.org/Graphics/SVG/1.1/DTD/svg11.dtd">
<svg version="1.1" xmlns="http://www.w3.org/2000/svg" xmlns:xlink="http://www.w3.org/1999/xlink" preserveAspectRatio="xMidYMid meet" viewBox="95.89864864864785 264.5810810810808 481.1891891891903 157.91891891891885" width="473.19" height="148.92"><defs><path d="M128 293.9L535.48 293.9L535.48 269.08L128 269.08L128 293.9Z" id="br5Z9awTL"></path><path d="M573.09 373.32C426.9 432.89 269.17 432.89 99.9 373.32" id="f1ociwhUb0"></path><path d="M181.64 395.66L181.64 269.08" id="ay7d3Io2f"></path><path d="M343.37 418L343.37 269.08" id="ckTA0BUfd"></path><path d="M488.68 401.66L488.68 269.08" id="bTr8Vw0sC"></path><path d="M184.3 280.15C184.3 283.27 183 285.81 181.4 285.81C179.79 285.81 178.49 283.27 178.49 280.15C178.49 277.02 179.79 274.48 181.4 274.48C183 274.48 184.3 277.02 184.3 280.15Z" id="c2cbCKknYW"></path><path d="M346.27 280.15C346.27 283.27 344.97 285.81 343.37 285.81C341.77 285.81 340.47 283.27 340.47 280.15C340.47 277.02 341.77 274.48 343.37 274.48C344.97 274.48 346.27 277.02 346.27 280.15Z" id="df5CG2bbU"></path><path d="M491.35 280.15C491.35 283.27 490.05 285.81 488.45 285.81C486.85 285.81 485.55 283.27 485.55 280.15C485.55 277.02 486.85 274.48 488.45 274.48C490.05 274.48 491.35 277.02 491.35 280.15Z" id="dESfEdT01"></path></defs><g><g><use xlink:href="#br5Z9awTL" opacity="1" fill="#b3b3b3" fill-opacity="1"></use><g><use xlink:href="#br5Z9awTL" opacity="1" fill-opacity="0" stroke="#000000" stroke-width="1" stroke-opacity="1"></use></g></g><g><g><use xlink:href="#f1ociwhUb0" opacity="1" fill-opacity="0" stroke="#000000" stroke-width="8" stroke-opacity="1"></use></g></g><g><g><use xlink:href="#ay7d3Io2f" opacity="1" fill-opacity="0" stroke="#000000" stroke-width="9" stroke-opacity="1"></use></g></g><g><g><use xlink:href="#ckTA0BUfd" opacity="1" fill-opacity="0" stroke="#000000" stroke-width="9" stroke-opacity="1"></use></g></g><g><g><use xlink:href="#bTr8Vw0sC" opacity="1" fill-opacity="0" stroke="#000000" stroke-width="9" stroke-opacity="1"></use></g></g><g><use xlink:href="#c2cbCKknYW" opacity="1" fill="#5f5f5f" fill-opacity="1"></use></g><g><use xlink:href="#df5CG2bbU" opacity="1" fill="#5f5f5f" fill-opacity="1"></use></g><g><use xlink:href="#dESfEdT01" opacity="1" fill="#5f5f5f" fill-opacity="1"></use></g></g></svg>