<?xml version="1.0" encoding="UTF-8" standalone="no"?>
<!DOCTYPE svg PUBLIC "-//W3C//DTD SVG 1.1//EN" "http://www.w3.org/Graphics/SVG/1.1/DTD/svg11.dtd">
<svg version="1.1" xmlns="http://www.w3.org/2000/svg" xmlns:xlink="http://www.w3.org/1999/xlink" preserveAspectRatio="xMidYMid meet" viewBox="66.744736842105 75.39097744360907 475.0000000000001 431.18" width="475" height="431.18"><defs><path d="M68.17 75.39L541.74 75.39L541.74 506.57L68.17 506.57L68.17 75.39Z" id="c4nntnKmj"></path><path d="M499.85 188.35C499.85 227.71 467.28 259.67 427.16 259.67C387.04 259.67 354.47 227.71 354.47 188.35C354.47 148.98 387.04 117.02 427.16 117.02C467.28 117.02 499.85 148.98 499.85 188.35Z" id="anDiVzocS"></path><path d="M539.34 436.44L67.72 436.44L67.72 366.83L539.34 366.83L539.34 436.44Z" id="b1i358lg0M"></path><path d="M536.7 401.63L66.74 403.68" id="dm62UyT5n"></path><path d="M101.26 436.44L101.26 366.83" id="a3LQew1QSZ"></path><path d="M142.41 437.47L142.41 367.85" id="bo4FU7PS9"></path><path d="M190.4 434.94L190.4 365.32" id="gaM8UhspD"></path><path d="M245.2 434.94L245.2 390.03L245.2 365.32" id="d4w0mvKTxz"></path><path d="M302.55 436.44L302.55 366.83" id="b1p6t6Exj8"></path><path d="M362.14 434.94L362.14 365.32" id="cVLtOUQmP"></path><path d="M427.16 434.94L427.16 365.32" id="ar05rkYcg"></path><path d="M490.93 434.94L490.93 365.32" id="e17qHqPl7"></path><path d="M271.68 156.95C276.7 156.95 280.76 161.02 280.76 166.03C280.76 198.41 280.76 286.47 280.76 318.84C280.76 323.86 276.7 327.92 271.68 327.92C243.47 327.92 167.9 327.92 139.68 327.92C134.67 327.92 130.61 323.86 130.61 318.84C130.61 286.47 130.61 198.41 130.61 166.03C130.61 161.02 134.67 156.95 139.68 156.95C167.9 156.95 243.47 156.95 271.68 156.95Z" id="al3pSpjLi"></path><path d="" id="dZlyqwfue"></path><path d="M153.81 175.38C153.81 176.7 152.59 177.77 151.08 177.77C149.58 177.77 148.35 176.7 148.35 175.38C148.35 174.06 149.58 172.99 151.08 172.99C152.59 172.99 153.81 174.06 153.81 175.38Z" id="c8QJy13DaG"></path><path d="M267.05 175.38C267.05 176.7 265.83 177.77 264.32 177.77C262.82 177.77 261.59 176.7 261.59 175.38C261.59 174.06 262.82 172.99 264.32 172.99C265.83 172.99 267.05 174.06 267.05 175.38Z" id="a5XSC33Ro"></path><path d="M267.05 310.86C267.05 312.18 265.83 313.25 264.32 313.25C262.82 313.25 261.59 312.18 261.59 310.86C261.59 309.54 262.82 308.47 264.32 308.47C265.83 308.47 267.05 309.54 267.05 310.86Z" id="bn0lnJcU"></path><path d="M153.81 313.25C153.81 314.57 152.59 315.64 151.08 315.64C149.58 315.64 148.35 314.57 148.35 313.25C148.35 311.93 149.58 310.86 151.08 310.86C152.59 310.86 153.81 311.93 153.81 313.25Z" id="dnjP8wEud"></path><path d="M476.14 185.5C473.85 180.28 472.42 177.02 471.85 175.71C465.1 160.27 444.37 157.48 433.77 170.59C431.5 173.4 425.83 180.42 416.76 191.64" id="fziuogryc"></path></defs><g><g><g><g><use xlink:href="#c4nntnKmj" opacity="1" fill="#cbcbcb" fill-opacity="1"></use><g><use xlink:href="#c4nntnKmj" opacity="1" fill-opacity="0" stroke="#999999" stroke-width="2" stroke-opacity="1"></use></g></g><g><use xlink:href="#anDiVzocS" opacity="1" fill="#ffffff" fill-opacity="1"></use></g><g><use xlink:href="#b1i358lg0M" opacity="1" fill="#f8f8f8" fill-opacity="1"></use><g><use xlink:href="#b1i358lg0M" opacity="1" fill-opacity="0" stroke="#909090" stroke-width="2" stroke-opacity="1"></use></g></g><g><g><use xlink:href="#dm62UyT5n" opacity="1" fill-opacity="0" stroke="#838383" stroke-width="2" stroke-opacity="1"></use></g></g><g><g><use xlink:href="#a3LQew1QSZ" opacity="1" fill-opacity="0" stroke="#6b6b6b" stroke-width="2" stroke-opacity="1"></use></g></g><g><g><use xlink:href="#bo4FU7PS9" opacity="1" fill-opacity="0" stroke="#777777" stroke-width="2" stroke-opacity="1"></use></g></g><g><g><use xlink:href="#gaM8UhspD" opacity="1" fill-opacity="0" stroke="#777777" stroke-width="2" stroke-opacity="1"></use></g></g><g><g><use xlink:href="#d4w0mvKTxz" opacity="1" fill-opacity="0" stroke="#777777" stroke-width="2" stroke-opacity="1"></use></g></g><g><g><use xlink:href="#b1p6t6Exj8" opacity="1" fill-opacity="0" stroke="#777777" stroke-width="2" stroke-opacity="1"></use></g></g><g><g><use xlink:href="#cVLtOUQmP" opacity="1" fill-opacity="0" stroke="#777777" stroke-width="2" stroke-opacity="1"></use></g></g><g><g><use xlink:href="#ar05rkYcg" opacity="1" fill-opacity="0" stroke="#777777" stroke-width="2" stroke-opacity="1"></use></g></g><g><g><use xlink:href="#e17qHqPl7" opacity="1" fill-opacity="0" stroke="#777777" stroke-width="2" stroke-opacity="1"></use></g></g><g><g><use xlink:href="#al3pSpjLi" opacity="1" fill-opacity="0" stroke="#b9b9b9" stroke-width="1" stroke-opacity="1"></use></g></g><g><g><use xlink:href="#dZlyqwfue" opacity="1" fill-opacity="0" stroke="#0f0f0f" stroke-width="2" stroke-opacity="1"></use></g></g><g><use xlink:href="#c8QJy13DaG" opacity="1" fill="#b0afaf" fill-opacity="1"></use></g><g><use xlink:href="#a5XSC33Ro" opacity="1" fill="#b0afaf" fill-opacity="1"></use></g><g><use xlink:href="#bn0lnJcU" opacity="1" fill="#b0afaf" fill-opacity="1"></use></g><g><use xlink:href="#dnjP8wEud" opacity="1" fill="#b0afaf" fill-opacity="1"></use></g></g><g><g><use xlink:href="#fziuogryc" opacity="1" fill-opacity="0" stroke="#060606" stroke-width="2" stroke-opacity="1"></use></g></g></g></g></svg>