<?xml version="1.0" encoding="UTF-8" standalone="no"?>
<!DOCTYPE svg PUBLIC "-//W3C//DTD SVG 1.1//EN" "http://www.w3.org/Graphics/SVG/1.1/DTD/svg11.dtd">
<svg version="1.1" xmlns="http://www.w3.org/2000/svg" xmlns:xlink="http://www.w3.org/1999/xlink" preserveAspectRatio="xMidYMid meet" viewBox="67.49661654135315 75.39097744360907 475.00000000000006 431.18" width="475" height="431.18"><defs><path d="M68.93 75.39L542.5 75.39L542.5 506.57L68.93 506.57L68.93 75.39Z" id="a1uPfT7Dv6"></path><path d="M500.6 188.35C500.6 227.71 468.03 259.67 427.91 259.67C387.79 259.67 355.22 227.71 355.22 188.35C355.22 148.98 387.79 117.02 427.91 117.02C468.03 117.02 500.6 148.98 500.6 188.35Z" id="b2NverdyZi"></path><path d="M540.09 436.44L68.47 436.44L68.47 366.83L540.09 366.83L540.09 436.44Z" id="hyPAQqhY"></path><path d="M537.45 401.63L67.5 403.68" id="d3PAkfKV4"></path><path d="M102.01 436.44L102.01 366.83" id="e1c6IKwTf"></path><path d="M143.17 437.47L143.17 367.85" id="b8bertXn1"></path><path d="M191.15 434.94L191.15 365.32" id="b1LZcBLPXa"></path><path d="M245.95 434.94L245.95 390.03L245.95 365.32" id="c82OBA19H"></path><path d="M303.31 436.44L303.31 366.83" id="b7XiIlZxZq"></path><path d="M362.89 434.94L362.89 365.32" id="a3bDs1Ml6M"></path><path d="M427.91 434.94L427.91 365.32" id="ciZ0L1xQO"></path><path d="M491.68 434.94L491.68 365.32" id="l4KT3Xw1VS"></path><path d="M272.43 156.95C277.45 156.95 281.51 161.02 281.51 166.03C281.51 198.41 281.51 286.47 281.51 318.84C281.51 323.86 277.45 327.92 272.43 327.92C244.22 327.92 168.65 327.92 140.44 327.92C135.42 327.92 131.36 323.86 131.36 318.84C131.36 286.47 131.36 198.41 131.36 166.03C131.36 161.02 135.42 156.95 140.44 156.95C168.65 156.95 244.22 156.95 272.43 156.95Z" id="c2Zdy4yyMV"></path><path d="" id="a1s7fNE2En"></path><path d="M154.56 175.38C154.56 176.7 153.34 177.77 151.83 177.77C150.33 177.77 149.1 176.7 149.1 175.38C149.1 174.06 150.33 172.99 151.83 172.99C153.34 172.99 154.56 174.06 154.56 175.38Z" id="aAKZPsIMl"></path><path d="M267.81 175.38C267.81 176.7 266.58 177.77 265.08 177.77C263.57 177.77 262.35 176.7 262.35 175.38C262.35 174.06 263.57 172.99 265.08 172.99C266.58 172.99 267.81 174.06 267.81 175.38Z" id="a5g0enRu1"></path><path d="M267.81 310.86C267.81 312.18 266.58 313.25 265.08 313.25C263.57 313.25 262.35 312.18 262.35 310.86C262.35 309.54 263.57 308.47 265.08 308.47C266.58 308.47 267.81 309.54 267.81 310.86Z" id="ffKN82SKI"></path><path d="M154.56 313.25C154.56 314.57 153.34 315.64 151.83 315.64C150.33 315.64 149.1 314.57 149.1 313.25C149.1 311.93 150.33 310.86 151.83 310.86C153.34 310.86 154.56 311.93 154.56 313.25Z" id="d52omqkxme"></path><path d="M479.4 221.5L415.49 156.09" id="a60LAxQFZ"></path><path d="M479.4 153.83L415.49 221.5" id="bvoIMo9Ax"></path></defs><g><g><g><g><use xlink:href="#a1uPfT7Dv6" opacity="1" fill="#cbcbcb" fill-opacity="1"></use><g><use xlink:href="#a1uPfT7Dv6" opacity="1" fill-opacity="0" stroke="#999999" stroke-width="2" stroke-opacity="1"></use></g></g><g><use xlink:href="#b2NverdyZi" opacity="1" fill="#ffffff" fill-opacity="1"></use></g><g><use xlink:href="#hyPAQqhY" opacity="1" fill="#f8f8f8" fill-opacity="1"></use><g><use xlink:href="#hyPAQqhY" opacity="1" fill-opacity="0" stroke="#909090" stroke-width="2" stroke-opacity="1"></use></g></g><g><g><use xlink:href="#d3PAkfKV4" opacity="1" fill-opacity="0" stroke="#838383" stroke-width="2" stroke-opacity="1"></use></g></g><g><g><use xlink:href="#e1c6IKwTf" opacity="1" fill-opacity="0" stroke="#6b6b6b" stroke-width="2" stroke-opacity="1"></use></g></g><g><g><use xlink:href="#b8bertXn1" opacity="1" fill-opacity="0" stroke="#777777" stroke-width="2" stroke-opacity="1"></use></g></g><g><g><use xlink:href="#b1LZcBLPXa" opacity="1" fill-opacity="0" stroke="#777777" stroke-width="2" stroke-opacity="1"></use></g></g><g><g><use xlink:href="#c82OBA19H" opacity="1" fill-opacity="0" stroke="#777777" stroke-width="2" stroke-opacity="1"></use></g></g><g><g><use xlink:href="#b7XiIlZxZq" opacity="1" fill-opacity="0" stroke="#777777" stroke-width="2" stroke-opacity="1"></use></g></g><g><g><use xlink:href="#a3bDs1Ml6M" opacity="1" fill-opacity="0" stroke="#777777" stroke-width="2" stroke-opacity="1"></use></g></g><g><g><use xlink:href="#ciZ0L1xQO" opacity="1" fill-opacity="0" stroke="#777777" stroke-width="2" stroke-opacity="1"></use></g></g><g><g><use xlink:href="#l4KT3Xw1VS" opacity="1" fill-opacity="0" stroke="#777777" stroke-width="2" stroke-opacity="1"></use></g></g><g><g><use xlink:href="#c2Zdy4yyMV" opacity="1" fill-opacity="0" stroke="#b9b9b9" stroke-width="1" stroke-opacity="1"></use></g></g><g><g><use xlink:href="#a1s7fNE2En" opacity="1" fill-opacity="0" stroke="#0f0f0f" stroke-width="2" stroke-opacity="1"></use></g></g><g><use xlink:href="#aAKZPsIMl" opacity="1" fill="#b0afaf" fill-opacity="1"></use></g><g><use xlink:href="#a5g0enRu1" opacity="1" fill="#b0afaf" fill-opacity="1"></use></g><g><use xlink:href="#ffKN82SKI" opacity="1" fill="#b0afaf" fill-opacity="1"></use></g><g><use xlink:href="#d52omqkxme" opacity="1" fill="#b0afaf" fill-opacity="1"></use></g></g></g><g><g><use xlink:href="#a60LAxQFZ" opacity="1" fill-opacity="0" stroke="#000000" stroke-width="2" stroke-opacity="1"></use></g></g><g><g><use xlink:href="#bvoIMo9Ax" opacity="1" fill-opacity="0" stroke="#000000" stroke-width="2" stroke-opacity="1"></use></g></g></g></svg>