<?xml version="1.0" encoding="UTF-8" standalone="no"?>
<!DOCTYPE svg PUBLIC "-//W3C//DTD SVG 1.1//EN" "http://www.w3.org/Graphics/SVG/1.1/DTD/svg11.dtd">
<svg version="1.1" xmlns="http://www.w3.org/2000/svg" xmlns:xlink="http://www.w3.org/1999/xlink" preserveAspectRatio="xMidYMid meet" viewBox="65.45339789272322 84.49368326187657 474.9999999999995 282.1724531017598" width="475" height="282.17"><defs><path d="M153.39 148.5C162.34 148.5 169.59 155.75 169.59 164.69C169.59 205.09 169.59 310.08 169.59 350.47C169.59 359.42 162.34 366.67 153.39 366.67C147.2 366.67 144.81 366.67 138.61 366.67C129.67 366.67 122.41 359.42 122.41 350.47C122.41 310.08 122.41 205.09 122.41 164.69C122.41 155.75 129.67 148.5 138.61 148.5C144.81 148.5 147.2 148.5 153.39 148.5Z" id="d4oZ7Bol2i"></path><path d="M524.26 331.87C533.2 331.87 540.45 339.12 540.45 348.06C540.45 351.78 540.45 346.75 540.45 350.47C540.45 359.42 533.2 366.67 524.26 366.67C432.5 366.67 173.41 366.67 81.65 366.67C72.7 366.67 65.45 359.42 65.45 350.47C65.45 346.75 65.45 351.78 65.45 348.06C65.45 339.12 72.7 331.87 81.65 331.87C173.41 331.87 432.5 331.87 524.26 331.87Z" id="b1H88F2s5U"></path><path d="M153.3 174.93C153.3 180.66 148.92 185.31 143.54 185.31C138.15 185.31 133.78 180.66 133.78 174.93C133.78 169.21 138.15 164.56 143.54 164.56C148.92 164.56 153.3 169.21 153.3 174.93Z" id="bostHfsji"></path><path d="M154.12 345.05C154.12 350.78 149.75 355.42 144.36 355.42C138.98 355.42 134.6 350.78 134.6 345.05C134.6 339.33 138.98 334.68 144.36 334.68C149.75 334.68 154.12 339.33 154.12 345.05Z" id="aLndzJ62k"></path><path d="M402.64 112.94L540.45 171.61L402.64 246.82L81.98 246.82L84.46 112.94L402.64 112.94Z" id="a7Fvfd46U6"></path><path d="M540.45 172.44L400.16 112.94L400.16 246.82L540.45 172.44Z" id="bK9av8u0"></path><path d="M84.85 111.41L71.73 84.49L156.81 87.46L185.7 112.46L84.85 111.41Z" id="auvCtIoEs"></path><path d="" id="g1w5Z0Of9F"></path><path d="M153.48 148.5C162.42 148.5 169.67 155.75 169.67 164.69C169.67 205.09 169.67 310.08 169.67 350.47C169.67 359.42 162.42 366.67 153.48 366.67C147.28 366.67 144.89 366.67 138.69 366.67C129.75 366.67 122.5 359.42 122.5 350.47C122.5 310.08 122.5 205.09 122.5 164.69C122.5 155.75 129.75 148.5 138.69 148.5C144.89 148.5 147.28 148.5 153.48 148.5Z" id="c6arWzUyLh"></path><path d="M153.54 341.91C153.54 347.63 149.16 352.28 143.78 352.28C138.39 352.28 134.02 347.63 134.02 341.91C134.02 336.18 138.39 331.54 143.78 331.54C149.16 331.54 153.54 336.18 153.54 341.91Z" id="e4LV4r82X5"></path><path d="M155.84 182.41C155.84 188.13 151.47 192.78 146.08 192.78C140.7 192.78 136.32 188.13 136.32 182.41C136.32 176.68 140.7 172.03 146.08 172.03C151.47 172.03 155.84 176.68 155.84 182.41Z" id="a1mC8rbxA"></path></defs><g><g><g><g><g><use xlink:href="#d4oZ7Bol2i" opacity="1" fill="#4f4a4c" fill-opacity="1"></use></g><g><use xlink:href="#b1H88F2s5U" opacity="1" fill="#4f4a4c" fill-opacity="1"></use></g><g><use xlink:href="#bostHfsji" opacity="1" fill="#c4b5bb" fill-opacity="1"></use></g><g><use xlink:href="#aLndzJ62k" opacity="1" fill="#c4b5bb" fill-opacity="1"></use></g></g><g><use xlink:href="#a7Fvfd46U6" opacity="1" fill="#fdfdfd" fill-opacity="1"></use><g><use xlink:href="#a7Fvfd46U6" opacity="1" fill-opacity="0" stroke="#000000" stroke-width="2" stroke-opacity="1"></use></g></g><g><use xlink:href="#bK9av8u0" opacity="1" fill="#a3514d" fill-opacity="1"></use><g><use xlink:href="#bK9av8u0" opacity="1" fill-opacity="0" stroke="#000000" stroke-width="2" stroke-opacity="1"></use></g></g><g><use xlink:href="#auvCtIoEs" opacity="1" fill="#ffffff" fill-opacity="1"></use><g><use xlink:href="#auvCtIoEs" opacity="1" fill-opacity="0" stroke="#000000" stroke-width="2" stroke-opacity="1"></use></g></g><g><g><use xlink:href="#g1w5Z0Of9F" opacity="1" fill-opacity="0" stroke="#000000" stroke-width="2" stroke-opacity="1"></use></g></g></g><g><use xlink:href="#c6arWzUyLh" opacity="1" fill="#4f4a4c" fill-opacity="1"></use></g><g><use xlink:href="#e4LV4r82X5" opacity="1" fill="#c4b5bb" fill-opacity="1"></use></g><g><use xlink:href="#a1mC8rbxA" opacity="1" fill="#c4b5bb" fill-opacity="1"></use></g></g></g></svg>