<?xml version="1.0" encoding="UTF-8" standalone="no"?>
<!DOCTYPE svg PUBLIC "-//W3C//DTD SVG 1.1//EN" "http://www.w3.org/Graphics/SVG/1.1/DTD/svg11.dtd">
<svg version="1.1" xmlns="http://www.w3.org/2000/svg" xmlns:xlink="http://www.w3.org/1999/xlink" preserveAspectRatio="xMidYMid meet" viewBox="54.70959623983071 173.26704545454544 395.2066115702481 124.7933884297521" width="475" height="149.99"><defs><path d="M180.33 235.66C180.33 270.1 152.19 298.06 117.52 298.06C82.85 298.06 54.71 270.1 54.71 235.66C54.71 201.23 82.85 173.27 117.52 173.27C152.19 173.27 180.33 201.23 180.33 235.66Z" id="g5dXCZT8l"></path><path d="M160.49 235.66C160.49 258.93 141.24 277.81 117.52 277.81C93.8 277.81 74.54 258.93 74.54 235.66C74.54 212.4 93.8 193.51 117.52 193.51C141.24 193.51 160.49 212.4 160.49 235.66Z" id="c1ILj7yBnN"></path><path d="M317.6 235.66C317.6 270.1 289.46 298.06 254.79 298.06C220.13 298.06 191.98 270.1 191.98 235.66C191.98 201.23 220.13 173.27 254.79 173.27C289.46 173.27 317.6 201.23 317.6 235.66Z" id="b77anJDlx1"></path><path d="M297.77 235.66C297.77 258.93 278.51 277.81 254.79 277.81C231.07 277.81 211.82 258.93 211.82 235.66C211.82 212.4 231.07 193.51 254.79 193.51C278.51 193.51 297.77 212.4 297.77 235.66Z" id="ce5RggMN1"></path><path d="M449.92 235.66C449.92 270.1 421.77 298.06 387.11 298.06C352.44 298.06 324.3 270.1 324.3 235.66C324.3 201.23 352.44 173.27 387.11 173.27C421.77 173.27 449.92 201.23 449.92 235.66Z" id="hyiQAfcvk"></path><path d="M430.08 235.66C430.08 258.93 410.82 277.81 387.11 277.81C363.39 277.81 344.13 258.93 344.13 235.66C344.13 212.4 363.39 193.51 387.11 193.51C410.82 193.51 430.08 212.4 430.08 235.66Z" id="cdD8nL7oo"></path></defs><g><g><g><use xlink:href="#g5dXCZT8l" opacity="1" fill="#343132" fill-opacity="1"></use></g><g><use xlink:href="#c1ILj7yBnN" opacity="1" fill="#a29398" fill-opacity="1"></use></g></g><g><g><use xlink:href="#b77anJDlx1" opacity="1" fill="#343132" fill-opacity="1"></use></g><g><use xlink:href="#ce5RggMN1" opacity="1" fill="#a29398" fill-opacity="1"></use></g></g><g><g><use xlink:href="#hyiQAfcvk" opacity="1" fill="#343132" fill-opacity="1"></use></g><g><use xlink:href="#cdD8nL7oo" opacity="1" fill="#a29398" fill-opacity="1"></use></g></g></g></svg>